<svg width="17" height="17" viewBox="0 0 17 17" fill="none" xmlns="http://www.w3.org/2000/svg">
<path d="M2.02023 11.5C3.17418 12.6556 4.71087 13.3493 6.34081 13.4505C7.97076 13.5516 9.58143 13.0532 10.8694 12.0492L15.3011 16.4809C15.4582 16.6327 15.6687 16.7167 15.8872 16.7148C16.1057 16.7129 16.3147 16.6252 16.4692 16.4707C16.6238 16.3162 16.7114 16.1072 16.7133 15.8887C16.7152 15.6702 16.6312 15.4597 16.4794 15.3025L12.0477 10.8709C13.0963 9.52516 13.5921 7.83015 13.4339 6.1315C13.2757 4.43285 12.4755 2.85852 11.1965 1.72958C9.91744 0.600637 8.25593 0.0021199 6.55078 0.0560913C4.84564 0.110063 3.22531 0.812457 2.02023 2.02003C1.39756 2.64238 0.903616 3.38132 0.566613 4.19462C0.229609 5.00793 0.0561523 5.87966 0.0561523 6.76003C0.0561523 7.64039 0.229609 8.51213 0.566613 9.32543C0.903616 10.1387 1.39756 10.8777 2.02023 11.5ZM3.19857 3.20003C4.02238 2.37623 5.10633 1.86356 6.26575 1.74936C7.42518 1.63515 8.58833 1.92648 9.55703 2.57371C10.5257 3.22094 11.2401 4.18402 11.5783 5.29887C11.9166 6.41372 11.8578 7.61136 11.412 8.68774C10.9663 9.76412 10.1611 10.6526 9.13367 11.2019C8.10626 11.7512 6.92017 11.9273 5.7775 11.7001C4.63483 11.473 3.60627 10.8566 2.86706 9.95614C2.12786 9.05566 1.72374 7.92672 1.72356 6.76169C1.72128 6.09967 1.85049 5.44379 2.10369 4.83209C2.35689 4.2204 2.72905 3.66508 3.19857 3.19836V3.20003Z" fill="#F76B56"/>
</svg>
